<?xml version="1.0" encoding="UTF-8" standalone="no"?>
<!-- Created with Inkscape (http://www.inkscape.org/) -->

<svg
   xmlns:dc="http://purl.org/dc/elements/1.1/"
   xmlns:cc="http://creativecommons.org/ns#"
   xmlns:rdf="http://www.w3.org/1999/02/22-rdf-syntax-ns#"
   xmlns:svg="http://www.w3.org/2000/svg"
   xmlns="http://www.w3.org/2000/svg"
   version="1.1"
   width="1600"
   height="500"
   id="svg2985">
  <metadata
     id="metadata2991">
    <rdf:RDF>
      <cc:Work
         rdf:about="">
        <dc:format>image/svg+xml</dc:format>
        <dc:type
           rdf:resource="http://purl.org/dc/dcmitype/StillImage" />
        <dc:title></dc:title>
      </cc:Work>
    </rdf:RDF>
  </metadata>
  <defs
     id="defs2989" />
  <g
     transform="translate(-58.132497,-65.291256)"
     id="g2995">
    <path
       d="m 1451.5,534.50852 c -0.55,-0.18347 -2.2488,-0.60936 -3.7752,-0.94643 -4.2807,-0.9453 -10.5456,-7.18272 -11.7657,-11.71416 -0.5831,-2.16511 -2.1698,-9.72904 -3.5261,-16.80873 -2.8057,-14.6456 -2.7938,-14.72634 4.5183,-30.55483 4.2016,-9.09501 8.0702,-12.95737 14.6338,-14.61011 2.4282,-0.61143 4.4149,-1.62771 4.4149,-2.25841 0,-1.12451 -38.2357,-46.0134 -46.3046,-54.36171 -2.257,-2.33522 -4.4233,-3.91022 -4.814,-3.5 -0.8885,0.93306 -5.8797,19.13757 -5.8807,21.44894 -4e-4,0.97055 1.5369,2.43275 3.5742,3.39948 1.9662,0.93302 4.237,2.70694 5.0463,3.94205 1.4103,2.15239 5.9523,21.46722 7.0738,30.08145 0.6972,5.35502 -5.0275,30.62778 -7.8288,34.56187 -4.6202,6.48842 -2.9045,6.31207 -61.4102,6.31207 -48.9935,0 -53.2495,-0.13469 -55.7361,-1.76393 -4.2927,-2.81269 -5.7603,-5.96196 -8.3426,-17.90171 -1.3342,-6.16892 -2.5933,-11.38366 -2.7979,-11.58833 -0.2047,-0.20466 -3.9178,2.49047 -8.2514,5.98918 -13.0836,10.56294 -21.5105,14.66586 -38.828,18.90471 -10.4968,2.56931 -32.0943,3.08794 -44.205,1.0615 -34.2163,-5.7253 -54.8336,-26.1952 -63.1528,-62.70142 -9.2225,-40.47044 -8.5821,-35.96422 -8.5972,-60.5 -0.015,-23.96058 0.7173,-29.97284 6.0779,-49.91807 6.5489,-24.36624 20.0005,-49.55973 35.4831,-66.45631 27.0873,-29.56103 68.8691,-39.74833 99.894,-24.35634 4.675,2.31935 8.9038,4.22009 9.3974,4.22386 0.4936,0.004 2.2936,-2.90617 4,-6.46653 4.7627,-9.93703 6.0975,-10.45077 28.2436,-10.87014 21.0103,-0.39787 28.3375,0.66673 32.3698,4.70316 2.2572,2.25949 2.8848,4.29929 4.3504,14.14037 0.942,6.325 2.194,13.7565 2.7822,16.51445 0.925,4.33718 0.7121,6.49822 -1.5765,16 -3.8193,15.85708 -22.4744,78.51195 -24.2959,81.60001 -3.6763,6.2328 -9.5438,7.45541 -28.4576,5.92982 -25.297,-2.04047 -26.0303,-2.55735 -30.5655,-21.54428 -1.7078,-7.15 -3.4747,-15.0119 -3.9265,-17.47089 -1.094,-5.95449 -3.5219,-7.19207 -13.3736,-6.81679 -6.3717,0.24271 -8.7351,0.87233 -15.1196,4.02787 -20.6413,10.20194 -36.6171,40.40096 -39.2848,74.25981 -0.5501,6.98194 -0.3714,8.41475 1.404,11.25914 3.4108,5.46438 7.4273,7.23285 16.4366,7.23712 4.3362,0.002 9.6503,-0.52547 11.8092,-1.17228 5.2775,-1.58118 11.9404,-7.63607 16.2998,-14.81244 7.4469,-12.25897 10.7608,-13.42795 37.7325,-13.31029 27.5571,0.12022 27.9508,0.39925 32.7456,23.20677 1.6659,7.92441 3.0289,15.86377 3.0289,17.64301 0,3.82261 1.1767,4.45041 8.3318,4.44523 6.6835,-0.005 10.7382,-2.48639 13.4343,-8.22199 2.1061,-4.48062 56.2348,-208.00581 56.2329,-211.43719 -7e-4,-1.16395 -1.8413,-2.87067 -5.0234,-4.65789 -2.7622,-1.55144 -5.6578,-3.80144 -6.4345,-5 -1.759,-2.7143 -6.9539,-26.7638 -6.951,-32.17919 0,-4.11969 7.1168,-24.42277 10.5753,-30.17905 1.0505,-1.74847 3.8685,-4.12715 6.2623,-5.28594 4.2188,-2.04228 5.4727,-2.09812 40.8904,-1.82095 35.2965,0.27622 36.6341,0.35715 39.36,2.38145 4.4712,3.32032 5.6985,8.43119 3.7188,15.48683 l -1.6351,5.82731 3.534,3.33297 c 4.7297,4.46072 5.4566,8.66676 2.8026,16.21787 -3.2442,9.23011 -34.4741,128.49716 -33.8185,129.15273 1.0541,1.05407 39.7201,-26.57606 39.7201,-28.38335 0,-0.9263 -0.7579,-5.21107 -1.6842,-9.52173 l -1.6842,-7.83754 3.4342,-14.15584 c 3.709,-15.28872 5.5341,-18.98641 10.9376,-22.16069 3.3944,-1.99402 5.0899,-2.06245 57.9966,-2.34068 48.0587,-0.25273 54.9976,-0.097 58.7102,1.31749 5.4196,2.06493 7.5208,5.58694 10.1237,16.96912 3.6923,16.14647 3.7044,19.44549 0.1258,34.5 -1.7649,7.425 -3.8355,14.72988 -4.6013,16.23307 -1.8116,3.55623 -6.0593,5.68072 -13.6923,6.84821 -3.7972,0.5808 -9.6237,2.66383 -15.1661,5.42202 -9.453,4.70436 -103.7808,69.66027 -104.274,71.80511 -0.2417,1.05097 47.3186,57.15281 58.129,68.56867 7.5661,7.98975 22.9944,20.1594 30.0023,23.66528 6.58,3.29186 7.4204,3.45771 17.5271,3.45919 12.1409,0.002 16.1622,1.38195 19.7711,6.78566 2.8455,4.26069 6.5439,19.9083 6.6682,28.21279 0.091,6.06743 -0.3107,7.30373 -6.0342,18.57706 -7.0787,13.94262 -10.6136,17.68332 -18.2599,19.32317 -4.6359,0.99422 -125.6557,1.56697 -128.5296,0.60829 z M 179,526.09558 c -65.73292,-0.57999 -67.59154,-0.64935 -70.9966,-2.64965 -4.8616,-2.85592 -7.50001,-7.19935 -11.143668,-18.345 C 92.701525,492.38131 92.676944,485.83998 96.735345,472 c 15.980925,-54.49825 15.542795,-53.37958 22.226545,-56.75 4.35128,-2.19422 5.25928,-2.25 36.62756,-2.25 24.52536,0 32.40638,-0.29691 33.1791,-1.25 C 189.98432,410.25044 248,203.04586 248,200.20327 c 0,-1.83401 -0.9412,-2.03107 -12.75,-2.66935 -7.0125,-0.37904 -18.6,-0.83072 -25.75,-1.00374 -7.15,-0.17303 -14.125,-0.76536 -15.5,-1.31629 -3.47525,-1.39245 -6.72524,-5.15379 -7.52928,-8.71389 -0.37264,-1.65 -2.02656,-7.275 -3.67537,-12.5 -3.86633,-12.25219 -3.51484,-16.73481 3.15809,-40.27551 9.03155,-31.86137 12.37846,-35.271829 33.50732,-34.143585 5.52158,0.294842 39.96424,0.955005 76.53924,1.467015 71.99982,1.00794 77.58052,1.3975 98.54146,6.87882 22.91305,5.9918 39.10175,14.41021 53.42962,27.78434 13.78559,12.86795 24.65667,31.64975 29.39906,50.79228 3.91224,15.79163 8.56713,38.31041 9.61139,46.49664 2.19856,17.23511 0.85773,42.59567 -3.51395,66.46325 -1.30593,7.12979 -2.25509,13.08257 -2.10926,13.2284 0.14583,0.14583 3.47284,-0.48765 7.39336,-1.40775 l 7.12821,-1.67289 1.69563,-7.05551 c 8.17358,-34.01017 23.14843,-59.40258 44.53624,-75.51878 10.01303,-7.54504 20.05797,-12.3978 32.58468,-15.74181 8.42104,-2.248 11.9189,-2.62611 24.80356,-2.68118 11.48903,-0.0491 16.63845,0.36466 22,1.76771 23.3007,6.0975 38.77427,22.54517 43.85762,46.61856 0.98718,4.675 2.95705,13.45 4.37751,19.5 1.77469,7.55875 2.72236,14.91051 3.02924,23.5 0.35366,9.89907 0.83653,13.1419 2.32066,15.58495 2.14646,3.53332 5.49857,17.01289 6.48269,26.06829 0.59254,5.45224 0.13069,8.07246 -4.05403,23 -2.59751,9.26572 -5.35698,17.85299 -6.13215,19.08283 -2.2209,3.52357 -6.33808,5.70155 -11.8227,6.25419 -4.70715,0.4743 -5.03619,0.68354 -4.73301,3.00974 0.1792,1.375 0.4042,7.56219 0.5,13.74931 0.16305,10.53111 0.30186,11.24817 2.17417,11.23157 4.01138,-0.0356 18.83998,-3.01815 20.06657,-4.03613 0.69357,-0.57561 2.16544,-2.9706 3.27082,-5.32221 2.55868,-5.44335 27.51259,-104.24724 26.67214,-105.60712 C 707.16437,302.45694 705.99407,302 704.90886,302 c -2.87272,0 -9.02841,-2.76368 -11.65792,-5.23398 -2.58567,-2.42911 -7.67136,-17.32019 -9.41352,-27.56313 -1.03073,-6.06014 -0.87916,-7.94949 1.58065,-19.70289 3.23479,-15.45643 5.71527,-20.31832 12.35851,-24.22342 L 702.5,222.5 l 34.97688,-0.29921 c 30.3275,-0.25944 35.54112,-0.0837 39.22157,1.32185 3.92728,1.49984 7.21606,4.51158 9.8841,9.05148 1.00876,1.71649 1.43689,1.58195 6.2808,-1.97381 10.18106,-7.47358 20.03288,-9.71407 31.49822,-7.16328 8.99065,2.00023 15.43083,6.02437 19.51906,12.19647 3.0724,4.63848 6.11937,15.5001 6.11937,21.81391 0,1.95392 0.45,3.55259 1,3.55259 0.55,0 1.00335,-0.7875 1.00743,-1.75 0.0148,-3.49234 6.93336,-32.23483 8.47828,-35.22237 2.26113,-4.37254 8.85101,-8.80287 14.34683,-9.64527 5.48706,-0.84105 46.49211,1.29345 53.48051,2.7839 3.26874,0.69715 5.90514,2.11859 8.21667,4.43013 1.87199,1.87198 3.90538,3.40361 4.51865,3.40361 0.61327,0 2.99077,-1.51896 5.28333,-3.37547 5.81406,-4.7082 9.36594,-6.33492 16.83841,-7.71178 5.48953,-1.01148 7.62953,-0.93561 14.07856,0.49916 15.89218,3.53568 22.78113,12.28415 25.70893,32.64877 1.0859,7.55253 4.2014,18.93932 5.182,18.93932 0.3754,0 1.8646,-3.7125 3.3095,-8.25 3.1737,-9.96689 6.1063,-15.36064 9.8714,-18.15598 2.6142,-1.94089 4.351,-2.1176 23.75,-2.41642 22.5425,-0.34725 23.3411,-0.57609 18.3343,-5.25329 -5.3836,-5.02921 -8.755,-12.55351 -12.9601,-28.92431 -5.1559,-20.07285 -4.0812,-34.06359 3.5202,-45.82444 8.9273,-13.81227 25.2131,-21.09547 41.085,-18.37373 12.5461,2.15142 21.544,7.91746 28.3981,18.19817 6.3706,9.55536 9.7035,20.5218 11.5656,38.05422 1.2973,12.21478 -0.064,20.59305 -4.7424,29.18888 -3.4087,6.26281 -12.2329,14.37859 -19.0212,17.49405 -2.8875,1.3252 -5.25,2.52949 -5.25,2.67619 0,0.14671 0.8478,3.60122 1.884,7.6767 1.0362,4.07548 2.2002,10.60641 2.5867,14.51318 0.688,6.95393 0.3211,8.57953 -17.4562,77.3406 -9.9874,38.63055 -17.9156,70.8716 -17.6181,71.64677 0.3786,0.98668 2.2748,1.41108 6.3222,1.41499 7.4642,0.007 12.3855,1.41188 15.1111,4.3131 3.4675,3.69107 9.1703,22.43815 9.1703,30.14628 0,7.65208 -3.5655,30.58693 -5.4373,34.97557 -1.6567,3.8841 -5.1205,6.96684 -9.4619,8.42095 -2.3859,0.7991 -20.6556,1.13852 -61.2821,1.13852 -64.27098,0 -63.64254,0.0592 -66.27611,-6.24383 C 961.50214,484.87269 958,465.73301 958,459.46515 c 0,-6.8392 4.6284,-29.02392 6.83904,-32.78067 3.16156,-5.37274 7.54336,-7.1111 18.99299,-7.53493 l 10.33917,-0.38273 1.92221,-3.13341 c 1.05722,-1.72337 2.8352,-5.55688 3.95109,-8.5189 2.4279,-6.44472 24.9555,-92.87195 24.9555,-95.74179 0,-1.29835 -1.2133,-2.58087 -3.4511,-3.64799 -4.8005,-2.2892 -6.3195,-5.06702 -9.2491,-16.91402 -3.8792,-15.6871 -4.098,-15.50496 -6.8115,5.66964 -1.9138,14.93428 -2.7111,17.90263 -6.35025,23.64092 -1.99155,3.14035 -4.37955,5.30132 -7.55926,6.84059 -4.32471,2.09355 -5.8804,2.24051 -22.36342,2.1126 -9.74345,-0.0756 -19.34412,-0.57482 -21.33482,-1.10936 -4.83366,-1.29792 -8.81669,-4.56801 -10.51515,-8.633 -2.78361,-6.66212 -2.55419,-7.32683 -14.8843,43.12559 -4.16117,17.02672 -7.43422,31.84323 -7.27343,32.92557 0.22774,1.53312 1.57644,2.22328 6.10466,3.12387 10.30462,2.04943 13.46545,7.6311 17.16835,30.31731 l 1.57926,9.67556 -3.48412,11.9501 c -3.89512,13.35979 -5.441,15.99558 -11.13251,18.98128 -3.64887,1.91416 -6.25801,2.11749 -34.94331,2.72312 -17.05,0.35998 -42.475,0.7687 -56.5,0.90827 -27.78236,0.27648 -29.44335,0.003 -33.82761,-5.57074 C 797.78072,464.45151 792,441.40162 792,434.90565 c 0,-6.61949 6.38364,-28.60863 9.19304,-31.6664 3.32004,-3.61356 9.15707,-5.92034 18.30696,-7.23486 4.4,-0.63213 10.33337,-1.48744 13.18528,-1.9007 5.74194,-0.83203 7.74328,-2.09798 9.89509,-6.25911 1.5188,-2.93703 21.41963,-87.04411 21.41963,-90.526 0,-1.10473 -0.88383,-2.80846 -1.96406,-3.78606 -1.08024,-0.97759 -2.71637,-3.74734 -3.63586,-6.15498 C 857.48059,284.96989 856.4323,283 856.07055,283 c -0.36176,0 -1.45438,5.9625 -2.42806,13.25 -3.67061,27.47273 -5.49843,33.45407 -11.4101,37.33841 -2.23095,1.46587 -6.03569,1.94402 -20.73239,2.60547 -20.07676,0.90359 -24.28738,0.54781 -27.99054,-2.3651 -3.3766,-2.65604 -5.03349,-6.07243 -6.4642,-13.32878 -1.67162,-8.47821 -2.06608,-9.60517 -3.13155,-8.94667 -1.5981,0.98768 -4.54316,7.51533 -7.87138,17.44667 -4.72491,14.0991 -23.10722,86.33511 -22.20083,87.2415 0.42988,0.42988 2.75256,1.78891 5.16151,3.02005 7.76985,3.97096 10.09191,10.09 7.77302,20.4833 -0.61414,2.7526 -0.25861,3.77487 2.34364,6.73866 4.14661,4.72273 4.51375,8.97432 1.90511,22.06161 -3.85175,19.32388 -6.61258,21.43401 -29.52478,22.56617 -23.66809,1.1695 -80.94156,1.05051 -84.1849,-0.17491 -5.48043,-2.07065 -8.23496,-5.91231 -11.40432,-15.90524 -1.66259,-5.24213 -3.28869,-12.80789 -3.61357,-16.81281 -0.32487,-4.00492 -0.91973,-7.48504 -1.32191,-7.7336 -0.40218,-0.24856 -1.84782,1.22819 -3.21252,3.28167 C 622.91424,476.10904 597.2723,489.36833 569,489.32321 525.83578,489.25432 497.89286,466.30985 490.58492,424.93508 489.76549,420.29578 488.21548,412.9 487.14045,408.5 c -1.07504,-4.4 -2.24498,-10.51693 -2.59989,-13.59318 -0.56713,-4.91573 -1.18515,-6.12302 -5.10249,-9.9676 -4.58393,-4.49879 -7.59711,-10.82157 -8.90653,-18.68922 -0.38904,-2.3375 -1.08083,-4.25 -1.53732,-4.25 -0.45648,0 -2.04869,3.7125 -3.53822,8.25 -25.69729,78.28035 -75.93187,135.1484 -132.74025,150.26854 -22.5319,5.99711 -38.88084,6.59027 -153.71575,5.57704 z M 326.31395,413.11907 c 20.62286,-5.46312 30.94548,-16.42442 47.66966,-50.61907 20.54217,-42.00099 31.42756,-80.99489 34.19664,-122.5 1.28377,-19.24217 0.65607,-22.96165 -4.91584,-29.12909 -4.00827,-4.43667 -8.92892,-7.27359 -14.26441,-8.22389 -1.925,-0.34286 -14.95017,-1.08746 -28.94482,-1.65466 -20.33436,-0.82416 -25.67491,-0.77632 -26.5904,0.23818 -0.95741,1.06094 -60.93269,204.81503 -62.2426,211.45685 -0.381,1.93183 0.0774,2.24036 3.92321,2.64077 2.39504,0.24935 13.12961,0.32006 23.85461,0.15713 15.85945,-0.24094 20.95882,-0.6827 27.31395,-2.36622 z M 576.02502,395.75 c 6.3142,-4.27818 5.30162,-4.83904 -8.18118,-4.53153 -11.95195,0.27259 -12.35401,0.35316 -12.6642,2.53773 -0.42453,2.98975 2.47448,4.09931 10.92248,4.18041 5.26494,0.0506 7.27469,-0.39232 9.9229,-2.18661 z m 19.75895,-87 c 0.56587,-0.6875 1.34707,-3.3875 1.73599,-6 0.65948,-4.42991 0.56027,-4.75 -1.47216,-4.75 -1.1986,0 -3.1622,0.5032 -4.36354,1.11823 -3.17265,1.62424 -9.68426,8.06892 -9.68426,9.58472 0,1.75992 12.33946,1.80204 13.78397,0.0471 z"
       id="path2999"
       style="fill:#f8e700" />
    <path
       d="m 1446.0005,532.88719 c -7.1238,-2.87124 -9.468,-7.46447 -13.0833,-25.63611 l -2.8736,-14.44361 1.9474,-5.78075 c 1.071,-3.17941 3.4961,-9.17921 5.389,-13.33289 3.7864,-8.3088 8.7185,-12.927 15.0801,-14.12044 1.9083,-0.35801 3.6901,-1.00753 3.9595,-1.44338 0.2694,-0.43584 -10.3334,-13.35591 -23.5618,-28.71127 -29.0777,-33.75327 -26.5823,-31.0943 -27.9232,-29.75339 -1.1135,1.11347 -5.8789,18.48805 -5.9146,21.56425 -0.012,0.99907 1.564,2.54791 3.73,3.66683 4.9185,2.54078 5.813,4.21348 8.1775,15.29196 1.093,5.12134 2.5499,11.90128 3.2374,15.06652 1.1623,5.35106 1.0257,6.74533 -1.9467,19.8646 -3.5737,15.77333 -5.5477,19.82134 -10.984,22.52395 -3.4938,1.73694 -7.082,1.85646 -55.7342,1.85646 -56.3851,0 -55.5971,0.0727 -59.6289,-5.5 -0.9947,-1.375 -2.7257,-6.775 -3.8464,-12 -1.1208,-5.225 -2.2684,-10.5125 -2.5503,-11.75 -0.2819,-1.2375 -1.0063,-2.25 -1.6098,-2.25 -0.6035,0 -3.7172,2.42556 -6.9193,5.39014 -15.6881,14.52445 -37.0121,21.94357 -62.9453,21.90021 -35.4659,-0.0593 -56.5803,-9.85681 -71.3958,-33.12912 -7.6294,-11.98427 -9.8503,-18.73497 -16.9959,-51.66123 -3.7282,-17.17901 -4.5661,-24.30568 -4.5885,-39.02623 -0.084,-55.33433 24.409,-108.24123 61.6352,-133.13651 26.2131,-17.53019 61.3408,-20.18714 83.6614,-6.32788 2.6491,1.64484 5.3491,2.98826 6,2.98538 0.651,-0.003 2.5703,-3.06565 4.2652,-6.80614 4.5276,-9.99224 6.1197,-10.5994 28.9048,-11.02304 19.3837,-0.36039 28.5735,1.0331 32.0346,4.8576 1.0919,1.20657 2.6513,7.66819 4.529,18.76698 l 2.8638,16.92683 -2.3821,10.39151 c -1.3101,5.71532 -7.101,26.30041 -12.8686,45.74464 -8.6917,29.30227 -10.9642,35.85169 -13.2772,38.26595 -4.3628,4.55375 -8.4846,5.17584 -25.746,3.8857 -26.0576,-1.94759 -26.7541,-2.41764 -31.4581,-21.22854 -1.75,-6.99807 -3.1818,-14.26071 -3.1818,-16.13922 0,-1.8785 -0.8611,-4.47781 -1.9136,-5.77625 -1.7657,-2.17822 -2.6357,-2.35959 -11.25,-2.3454 -8.3067,0.0137 -9.9981,0.34149 -15.3364,2.97221 -3.8438,1.89424 -8.9177,5.84175 -14.119,10.98462 -7.105,7.0251 -8.8191,9.46416 -13.7237,19.52779 -6.3972,13.12619 -10.0955,25.86392 -11.8221,40.71767 -1.3938,11.98986 -0.4999,15.14808 5.6051,19.80461 3.2475,2.47696 4.352,2.72286 12.3136,2.74145 13.7027,0.032 19.2279,-3.22678 27.8796,-16.44355 8.0468,-12.29266 10.4123,-13.11739 37.1821,-12.9631 21.098,0.1216 24.4392,0.83795 28.061,6.01621 1.9218,2.74769 8.1234,29.39493 8.1234,34.90503 0,3.8359 2.2598,4.69658 10.5307,4.01069 6.2192,-0.51574 8.4967,-2.14672 11.4104,-8.17116 1.7276,-3.57208 55.7558,-205.9313 56.3404,-211.01953 0.1555,-1.35301 -1.3796,-2.84499 -5.3203,-5.1711 -3.0463,-1.79817 -6.072,-4.31742 -6.7236,-5.59832 -0.9639,-1.89455 -3.9041,-14.61074 -6.9012,-29.8472 -0.3094,-1.5728 1.4749,-7.89587 4.7523,-16.84126 5.7156,-15.60011 8.3105,-19.32397 14.7026,-21.09927 4.0124,-1.11437 67.7648,-1.47995 73.0695,-0.41901 7.5521,1.51043 10.9877,8.86958 8.3952,17.98284 l -1.5885,5.58405 3.1422,2.45909 c 5.0205,3.92917 5.7259,8.54433 2.7524,18.00812 -3.0599,9.73886 -33.5621,125.16389 -33.5621,127.00418 0,0.73676 0.2751,1.33956 0.6114,1.33956 1.3741,0 38.5972,-26.38004 39.1105,-27.71763 0.3057,-0.79667 -0.2423,-5.25167 -1.2178,-9.90001 l -1.7736,-8.45153 3.3558,-14.1455 c 3.6148,-15.23736 5.4811,-19.03791 10.9171,-22.23126 3.3928,-1.99308 5.0932,-2.06248 57.2666,-2.33723 34.2289,-0.18025 55.1429,0.0865 57.5476,0.73405 7.7916,2.09807 11.2062,9.28215 14.2252,29.92921 1.1631,7.9548 1.1077,8.45901 -2.5442,23.12541 -4.5639,18.32968 -5.937,20.04438 -17.63,22.01666 -5.0168,0.84618 -10.1258,2.69079 -16.3343,5.89743 -10.1515,5.24313 -102.8702,69.34995 -103.3295,71.4432 -0.3128,1.42558 48.0104,58.04185 60.1411,70.46222 8.1453,8.33995 20.4727,17.99505 28.0238,21.9489 4.5393,2.37688 6.5953,2.74976 17.8481,3.2369 10.6383,0.46055 13.1727,0.88213 15.5,2.57842 4.2496,3.0974 6.8472,9.25669 9.2392,21.9081 2.0552,10.86979 2.089,11.82084 0.595,16.76312 -2.7138,8.97791 -11.6367,24.80071 -15.8943,28.18521 l -3.8424,3.05433 -67.6576,0.19734 c -43.5841,0.12712 -68.5471,-0.16111 -70.1572,-0.81007 z m 130.0779,-33.92925 c 2.1658,-1.15908 12.9216,-21.83101 12.9216,-24.83437 0,-2.69404 -1.8063,-3.12048 -13.3318,-3.14739 -11.8511,-0.0277 -16.9872,-1.71076 -28.4259,-9.31519 -12.0645,-8.02046 -25.4127,-21.82546 -61.0711,-63.16107 -18.9784,-22 -36.4558,-42.11822 -38.8387,-44.70716 C 1444.9496,351.2039 1443,348.209 1443,347.1375 c 0,-2.43554 1.1623,-3.28689 64.0535,-46.91918 27.8045,-19.28998 53.9045,-36.8924 58,-39.1165 4.2851,-2.32701 10.6306,-4.73848 14.9465,-5.68008 12.3589,-2.69636 11.3349,-1.5488 15.1135,-16.93654 3.2859,-13.38081 3.316,-13.69799 1.4304,-15.07678 -2.6815,-1.96074 -104.6599,-2.075 -108.5439,-0.12161 -2.1381,1.07528 -2.9672,3.06386 -5.7269,13.73525 -1.7748,6.86287 -2.9893,13.24242 -2.6989,14.17679 0.2905,0.93436 1.4347,1.98657 2.5427,2.33824 1.108,0.35167 3.5599,1.9963 5.4488,3.65474 4.8818,4.28631 4.7641,8.5003 -0.3787,13.55817 -4.7734,4.69452 -59.7062,42.95673 -66.0234,45.98713 -10.1078,4.84873 -13.8339,1.94321 -12.8591,-10.02726 0.4936,-6.06166 33.3204,-133.49665 41.8344,-162.40303 1.1653,-3.95624 1.8499,-7.89374 1.5213,-8.75 -0.5246,-1.36697 -4.7533,-1.55684 -34.6743,-1.55684 -40.4034,0 -36.3505,-1.54838 -42.8635,16.37581 l -4.3152,11.87581 2.0368,2.03682 c 1.1203,1.12026 6.2148,3.42614 11.3212,5.12419 10.876,3.61664 12.2447,5.19739 11.3321,13.08737 -0.9409,8.13521 -60.4723,232.51709 -63.0276,237.55976 -2.8942,5.7114 -8.2069,10.49562 -13.1924,11.88011 -2.0775,0.57694 -7.7148,1.05149 -12.5273,1.05455 -10.6997,0.007 -11.8235,0.85756 -14.0223,10.61543 -3.8985,17.30028 -4.1823,19.33557 -2.8778,20.64009 0.967,0.96697 12.6511,1.25006 51.5951,1.25006 46.4464,0 50.494,-0.13483 52.2689,-1.74111 1.3145,-1.1896 2.8262,-5.84465 4.7723,-14.696 3.2658,-14.85369 3.1,-15.51129 -4.1164,-16.32468 -8.7186,-0.98271 -13.3656,-6.95246 -13.3682,-17.17346 0,-7.04023 9.1133,-43.36169 12.1001,-48.21553 1.9431,-3.15774 3.7454,-4.34922 6.579,-4.34922 4.9757,0 9.6027,4.6396 42.1222,42.23761 18.5334,21.42775 34.4657,40.37769 35.4052,42.11097 3.44,6.34688 1.6507,18.05109 -3.1527,20.62178 -1.0582,0.5663 -5.666,1.03132 -10.2397,1.03338 -11.7436,0.005 -13.5105,1.25972 -18.1692,12.89938 -4.0455,10.10756 -4.3751,12.61159 -2.0898,15.87437 l 1.5567,2.22251 65.009,0 c 43.1732,0 65.663,-0.34999 66.956,-1.04198 z m -350.3691,-40.00477 c 18.9725,-4.38277 35.3071,-15.38612 45.9504,-30.95325 6.66,-9.74099 14.3403,-27.86966 14.3403,-33.84899 0,-5.67706 -1.7757,-6.17891 -22.1973,-6.27356 -21.9417,-0.1017 -23.0035,0.23434 -27.9261,8.83816 -8.5457,14.93647 -23.9258,22.74441 -40.8018,20.71369 -7.6766,-0.92374 -11.8604,-2.82462 -16.7477,-7.6092 -13.8055,-13.51534 -16.1163,-44.62636 -5.7431,-77.3201 11.4824,-36.18961 35.1671,-57.75389 61.8246,-56.28973 12.3788,0.6799 19.0626,4.98013 23.7646,15.28973 1.9677,4.31437 2.2536,6.43981 2.0853,15.5 -0.1073,5.775 0.1815,11.10583 0.6418,11.84629 0.8464,1.36182 8.0288,2.37714 25.5997,3.61885 6.7098,0.47417 9.4566,0.30021 10.7944,-0.68362 2.948,-2.16797 25.7056,-79.91525 25.7056,-87.81843 0,-4.53818 -0.2582,-5.11074 -2.7276,-6.04963 -1.6295,-0.61952 -9.718,-0.91151 -20.0905,-0.72525 -20.3423,0.36529 -19.0745,-0.32678 -23.5961,12.88119 -2.7658,8.07902 -4.9385,11.9306 -6.7302,11.9306 -0.4589,0 -3.2683,-2.20416 -6.2431,-4.89812 -11.4981,-10.41278 -20.3087,-13.54049 -38.1125,-13.52975 -9.3701,0.006 -13.7076,0.49348 -19.7915,2.22587 -29.5526,8.41516 -53.657,33.3082 -68.7255,70.9742 -15.4629,38.65169 -16.0971,86.90401 -1.5475,117.7278 8.8232,18.69221 21.5165,29.51116 39.9518,34.05239 14.8893,3.66773 35.4704,3.83168 50.322,0.40086 z M 112.27505,525.02906 c -4.09714,-0.97344 -7.82159,-3.40736 -9.7742,-6.38742 -2.46016,-3.75468 -7.316667,-17.91517 -8.503157,-24.79331 -1.250067,-7.2467 -0.427483,-10.95608 10.776467,-48.59556 6.89775,-23.17289 8.60128,-26.97708 13.32337,-29.75277 3.19002,-1.87512 5.5043,-2.01867 37.06429,-2.29902 30.59853,-0.27181 33.72169,-0.45382 34.31971,-2 1.23775,-3.20024 58.59214,-208.69686 58.80552,-210.69594 0.19031,-1.78288 -0.58434,-2.06729 -7.28705,-2.67541 -4.125,-0.37425 -16.01351,-0.96677 -26.41891,-1.31671 -24.24957,-0.81553 -25.98496,-1.63258 -29.1073,-13.70424 -0.75521,-2.91977 -2.37952,-8.84189 -3.60958,-13.16025 -2.00845,-7.05104 -2.11951,-8.52944 -1.08936,-14.5 1.57769,-9.14393 8.69431,-34.30577 11.84813,-41.89077 4.23987,-10.19697 12.03343,-15.144358 21.68124,-13.763352 2.30768,0.330326 36.14578,1.010062 75.19578,1.510532 76.09573,0.97525 82.68471,1.39432 103.47283,6.58113 45.83204,11.43549 74.02532,38.12354 84.48565,79.975 4.58533,18.34575 8.50762,38.04993 9.66145,48.5356 1.92474,17.49146 0.16742,43.85552 -4.55164,68.28588 -0.83744,4.33534 -1.28235,8.27119 -0.9887,8.74633 0.29365,0.47514 1.83603,0.19054 3.4275,-0.63245 1.59147,-0.82298 4.15344,-1.50322 5.69325,-1.51164 1.53981,-0.008 3.37756,-0.382 4.08388,-0.83017 0.70632,-0.44817 2.58048,-5.72878 4.16479,-11.73469 1.58432,-6.00591 4.10013,-14.29483 5.59069,-18.41983 9.99057,-27.64792 29.05625,-50.32488 51.9603,-61.80225 14.14592,-7.08861 31.30335,-10.64224 47.5,-9.83814 33.51078,1.66367 54.2748,17.89846 60.93123,47.64039 1.0463,4.675 3.147,13.9 4.66823,20.5 1.90329,8.25758 2.8983,15.74242 3.1905,24 0.32486,9.18079 0.84492,12.7048 2.21363,15 2.1264,3.56577 5.66006,17.575 6.55858,26.0016 0.56536,5.30206 0.0462,8.08944 -4.45434,23.91378 -6.17299,21.70502 -7.24148,23.19641 -17.53694,24.47786 -4.91845,0.61219 -5.06124,0.72098 -4.75,3.61896 0.17649,1.64329 0.4515,7.9378 0.61114,13.9878 0.15964,6.05 0.69024,11 1.17911,11 0.79226,0 12.2317,-1.956 18.13696,-3.10119 5.03067,-0.97558 6.82863,-6.15654 19.78221,-57.00407 14.5151,-56.97702 14.13204,-55.24423 12.329,-55.76997 -0.74762,-0.218 -3.3783,-0.94772 -5.84596,-1.62161 -6.74076,-1.84082 -10.13411,-6.09087 -13.26748,-16.61705 -5.1836,-17.41365 -5.39594,-20.53751 -2.346,-34.51305 3.44627,-15.79163 5.75957,-20.4587 12.07647,-24.36414 l 4.86682,-3.00892 36.57842,0 c 35.09783,0 36.71995,0.0831 40.07502,2.05407 1.92313,1.12973 4.53767,3.60473 5.81008,5.5 1.27241,1.89526 2.69571,3.58235 3.16288,3.74909 0.46717,0.16674 3.25263,-1.53065 6.18992,-3.77196 9.54584,-7.28403 21.50375,-9.24615 33.84279,-5.55312 5.30162,1.58676 7.52109,2.9643 12.05699,7.48334 5.87119,5.84935 7.97452,10.86281 9.45573,22.53858 1.09816,8.65633 1.68768,8.28446 3.96315,-2.5 6.02541,-28.55701 6.7363,-30.27787 14.35889,-34.75885 4.58683,-2.69639 4.91606,-2.73821 20.16297,-2.56134 20.35356,0.23611 38.86618,1.81961 43.39493,3.71184 2.00016,0.83572 4.88306,2.88413 6.40644,4.55202 l 2.76979,3.03253 5.96442,-4.50345 c 13.99812,-10.56933 33.54197,-10.50215 45.39645,0.15604 5.9387,5.33941 8.65257,11.40502 10.56337,23.60925 1.5023,9.59499 4.1303,19.61276 5.5456,21.13916 0.4474,0.48247 1.3049,-1.09253 1.9056,-3.5 1.3753,-5.51167 5.7243,-16.63707 7.7053,-19.71099 0.8272,-1.28359 3.3814,-3.18621 5.6761,-4.22804 3.621,-1.64407 6.6924,-1.89715 23.2553,-1.91621 10.4959,-0.0121 19.3772,-0.31581 19.7364,-0.67496 0.3591,-0.35915 -1.1812,-2.64283 -3.423,-5.07485 -5.2701,-5.71747 -8.1129,-12.07338 -11.7976,-26.37698 -5.2611,-20.4235 -5.1018,-31.54514 0.6264,-43.74173 7.2517,-15.44027 27.0767,-25.57975 43.5942,-22.29622 23.566,4.68472 35.9536,22.25933 39.5877,56.16416 1.0221,9.53575 0.9386,11.26077 -0.8909,18.41411 -3.3344,13.03737 -11.0723,22.60722 -22.7443,28.12894 -4.6412,2.19565 -5.3928,2.92157 -4.9317,4.76301 0.2992,1.19491 1.2516,4.87256 2.1164,8.17256 0.8648,3.3 1.6524,9.825 1.7503,14.5 0.1687,8.0616 -0.7347,11.99558 -17.5147,76.27416 -9.7309,37.27578 -17.6925,68.66328 -17.6925,69.75 0,1.75644 0.694,1.97646 6.25,1.98142 7.8623,0.007 12.8052,1.35909 15.5111,4.2429 1.1619,1.23834 3.5588,6.52652 5.3263,11.75152 4.369,12.915 4.6792,20.62672 1.564,38.87942 -2.642,15.47988 -3.8407,18.13636 -9.7559,21.62058 -3.2939,1.94015 -5.194,2 -63.4937,2 -63.58341,0 -63.34924,0.0163 -66.24252,-4.61656 -1.72762,-2.76635 -5.05761,-18.84759 -5.77392,-27.88344 -0.47194,-5.95333 -0.0393,-10.18089 2.09774,-20.5 4.20714,-20.31458 6.58343,-22.69651 23.27991,-23.33521 11.49569,-0.43975 11.59998,-0.50621 15.74759,-10.03599 2.2729,-5.2224 26.3171,-97.17434 25.7995,-98.66479 -0.1979,-0.56979 -1.9343,-1.88388 -3.8586,-2.92019 -4.7741,-2.57101 -6.8071,-6.38925 -9.3411,-17.54382 -1.1869,-5.225 -2.5484,-10.12241 -3.0255,-10.88314 -1.0237,-1.63217 -1.4292,0.11839 -3.1006,13.38314 -2.6739,21.22246 -5.7334,29.31574 -12.72545,33.66297 -3.52771,2.19332 -4.90324,2.35708 -22.36947,2.66311 -24.88823,0.43606 -29.29134,-0.9005 -33.76015,-10.24791 -1.69055,-3.53612 -1.97344,-3.73282 -2.87641,-2 -0.82532,1.58381 -9.65103,36.42852 -18.13625,71.60359 -2.02286,8.38567 -1.61507,9.80189 2.83343,9.8402 3.3171,0.0286 10.06405,3.14875 12.33529,5.70455 2.42803,2.73222 7.77706,24.3659 7.85615,31.77349 0.0716,6.70111 -4.16434,22.96128 -7.36742,28.28109 -1.08656,1.80459 -3.84272,4.26223 -6.12479,5.46141 -4.05588,2.13127 -5.39792,2.19963 -59.64923,3.0384 -38.33797,0.59273 -56.60081,0.53256 -59.05989,-0.1946 -6.08293,-1.79873 -7.80461,-4.67864 -11.50452,-19.24398 -1.86408,-7.33828 -3.39967,-15.27568 -3.41242,-17.63868 -0.0127,-2.363 1.60965,-10.12965 3.60532,-17.25922 5.38101,-19.22378 6.19238,-19.74269 36.87151,-23.58083 5.91619,-0.74015 8.86243,-3.09185 10.97997,-8.76426 C 845.41799,380.40779 864,300.6905 864,297.56787 c 0,-1.27764 -0.74776,-2.94058 -1.66169,-3.69543 C 861.42438,293.1176 859.54574,290.025 858.16356,287 l -2.51305,-5.5 -0.79649,5 c -0.43807,2.75 -1.72527,11.75 -2.86044,20 -1.51517,11.01169 -2.7536,16.42603 -4.65774,20.36328 -3.95869,8.18555 -6.30856,8.90575 -30.37417,9.30918 -17.32787,0.29048 -19.84353,0.12798 -22.23607,-1.43639 -4.06182,-2.65583 -5.75389,-5.89083 -7.73889,-14.79571 -0.99191,-4.44975 -2.09416,-8.38115 -2.44946,-8.73644 -1.57508,-1.57508 -7.34426,12.51698 -12.45963,30.43445 -5.96792,20.90366 -19.19017,74.37051 -18.61988,75.29326 0.27535,0.44552 1.79718,1.06935 3.38183,1.38628 4.19565,0.83913 8.95848,5.27599 10.23411,9.53367 0.80448,2.68514 0.81221,5.31401 0.0281,9.55572 -1.0594,5.7308 -1.02105,5.92061 1.85893,9.20073 1.61736,1.84206 3.22741,4.87779 3.5779,6.74605 0.71079,3.78884 -2.92093,23.52378 -5.11162,27.7768 -1.91386,3.71558 -6.85461,7.61707 -11.14693,8.80224 -5.83855,1.6121 -93.97433,2.65291 -98.4886,1.16307 -6.2048,-2.04777 -9.11225,-6.46583 -12.64017,-19.20755 -1.7343,-6.26375 -3.15283,-13.78864 -3.15228,-16.72197 5.5e-4,-2.93334 -0.39228,-5.18334 -0.87296,-5 -0.48067,0.18333 -3.59032,3.76324 -6.91033,7.95534 -17.66093,22.30013 -44.47303,33.64593 -72.98593,30.8847 C 523.18091,485.322 499.46605,465.27475 492.01936,430.5 c -1.17777,-5.5 -3.01237,-13.68993 -4.07688,-18.19985 -1.06451,-4.50991 -2.39614,-11.44796 -2.95918,-15.41789 -0.93201,-6.5715 -1.43033,-7.65276 -5.56337,-12.07132 -5.17898,-5.53674 -6.72647,-8.74898 -8.45075,-17.54187 -0.67204,-3.42701 -1.57996,-6.00962 -2.01762,-5.73913 -0.43765,0.27048 -1.78526,3.5244 -2.99469,7.23092 -20.53371,62.92959 -55.85159,111.36354 -100.70243,138.10051 -14.82569,8.83804 -33.47923,14.92719 -54.05566,17.6456 -9.37528,1.23859 -27.01359,1.47559 -103.5,1.39067 -50.70933,-0.0563 -93.65001,-0.44716 -95.42373,-0.86858 z m 193.86048,-34.62734 c 31.1894,-4.04654 55.08678,-16.14253 80.60975,-40.80174 C 406.53692,430.47813 418.93299,413.58395 431.94411,388 444.3945,363.51864 453.01637,339.54926 461.50788,305.81072 469.80346,272.85067 473.83359,241.98551 472.5818,221 469.07427,162.19816 441.74889,128.92572 386.5,116.18349 c -15.97995,-3.68551 -25.837,-4.2039 -98,-5.1539 -39.05,-0.51408 -72.8,-1.18021 -75,-1.48029 -4.90208,-0.66865 -8.28727,0.92227 -10.68002,5.01923 -3.04868,5.22007 -11.96842,37.99172 -11.62588,42.71417 L 191.5,161.5 229,163.31729 c 20.625,0.99951 37.8957,2.20521 38.37934,2.67934 0.78833,0.77283 -68.35237,250.87143 -70.56576,255.25337 -0.81669,1.61684 -3.56556,1.75 -36.12626,1.75 -30.13198,0 -35.56148,0.22356 -37.44343,1.54173 -2.42868,1.70111 -5.94133,12.09693 -13.77049,40.75427 -5.14322,18.82591 -5.41039,23.43477 -1.4734,25.41627 1.95378,0.98333 22.52631,1.26147 94.15826,1.27299 78.23452,0.0126 93.46243,-0.21933 103.97727,-1.58354 z m -46.51852,-65.51317 c -7.08564,-0.45166 -13.13934,-1.07755 -13.45266,-1.39087 -0.31332,-0.31331 0.13627,-3.14097 0.99909,-6.28367 4.09652,-14.92107 72.03217,-247.01244 72.91838,-249.11407 l 1.01204,-2.40006 23.70307,0.71262 c 31.25161,0.93957 43.17163,2.03765 48.70911,4.48715 14.37963,6.36079 22.13818,20.37059 24.65559,44.52115 4.39977,42.20898 -13.59125,114.0284 -40.85194,163.0792 -18.08135,32.53421 -30.65136,42.29879 -59.80969,46.46114 -8.11161,1.15792 -39.19001,1.11895 -57.88299,-0.0726 z m 66.27988,-11.32554 c 19.67504,-4.94677 31.28586,-17.02735 47.56751,-49.49202 18.7128,-37.31227 31.22335,-80.10291 34.51999,-118.07099 2.09463,-24.12434 1.07493,-29.96137 -6.52326,-37.34063 -5.75401,-5.58822 -10.15356,-6.43934 -40.10772,-7.75905 -22.38617,-0.98628 -26.71638,-0.95269 -27.81306,0.21577 -1.18477,1.26231 -62.55825,209.83894 -62.54575,212.56059 0.009,2.02202 2.87255,2.2263 26.0054,1.85541 16.33434,-0.26189 24.25294,-0.80148 28.89689,-1.96908 z m 757.50101,47.30154 c 3.1834,-1.45046 3.2263,-1.58063 5.6438,-17.13303 1.7072,-10.9826 1.8171,-13.30127 0.6843,-14.43407 -0.845,-0.84503 -5.8129,-1.72693 -13.2878,-2.35884 -14.6682,-1.24002 -18.0285,-2.24567 -19.9556,-5.97224 -3.1975,-6.18325 -2.1935,-11.11805 18.5174,-91.01619 11,-42.43565 20,-78.18633 20,-79.44596 0,-1.25963 -0.7118,-2.56339 -1.5818,-2.89723 -2.7175,-1.04282 -64.3986,-0.68785 -66.3978,0.38212 -1.5651,0.83761 -4.1057,7.2897 -8.5433,21.69707 -0.5838,1.89533 3.24,6.02791 6.2571,6.76231 8.201,1.99627 14.1996,9.71208 14.2438,18.32161 0.024,4.61516 -26.5337,108.467 -30.0073,117.34221 -3.25,8.30407 -6.7624,13.72861 -9.95993,15.38212 C 997.01149,428.5283 993.09311,429 986.50421,429 c -12.70344,0 -13.35042,0.61524 -16.31856,15.51811 -2.64233,13.26701 -2.6907,15.08834 -0.43565,16.40179 2.57531,1.49998 110.3496,1.44749 113.6479,-0.0553 z m -354.67396,-3.72026 c 25.65803,-0.7789 24.29086,-0.0353 27.31369,-14.85652 2.43844,-11.95596 1.94647,-13.87371 -3.79978,-14.81213 -8.04231,-1.31339 -9.22909,-1.68091 -11.69721,-3.62233 -5.4121,-4.25716 -6.89264,-10.34298 -5.04781,-20.74927 1.81632,-10.2455 17.50975,-72.80889 23.10341,-92.10404 7.94561,-27.40807 16.32347,-41 25.27178,-41 8.85483,0 12.13836,6.97261 10.07411,21.39245 -1.16113,8.11111 -1.12338,9.00185 0.42964,10.13745 2.14315,1.5671 35.3954,0.79763 37.48241,-0.86736 2.18327,-1.74179 3.0748,-5.10566 5.31304,-20.04688 2.77751,-18.54101 2.81795,-29.64273 0.12974,-35.61566 -3.67967,-8.17587 -10.50586,-12.21152 -20.79696,-12.29517 -8.09527,-0.0658 -13.42639,2.47684 -22.56223,10.76092 -12.10248,10.97413 -14.32529,11.16932 -15.44791,1.35653 -0.96869,-8.46733 -2.67143,-11.58116 -6.74235,-12.32983 -1.78613,-0.32848 -17.75193,-0.46117 -35.47956,-0.29485 l -32.23206,0.3024 -2.99243,3 c -2.46762,2.47386 -3.34767,4.72926 -5.01795,12.86008 -3.47799,16.93065 -2.87251,18.53431 7.46781,19.77916 12.29458,1.48013 19.49416,6.89591 19.50294,14.67079 0.006,5.07423 -30.91318,126.0625 -33.549,131.27999 -3.03731,6.01225 -8.41929,10.66195 -13.17588,11.38316 -19.78546,2.99995 -20.35175,3.35253 -22.13663,13.78241 -2.71687,15.87603 -2.62581,16.41708 2.98599,17.74191 4.06445,0.95954 42.25149,1.03782 71.6032,0.14679 z m -146.90489,-3.74391 c 16.89424,-3.75265 32.91335,-15.27639 44.09688,-31.72217 3.89789,-5.73198 11.2404,-21.05807 13.61951,-28.42811 1.58226,-4.90158 1.58426,-5.41847 0.0301,-7.79044 l -1.66462,-2.54054 -20.34481,0.16613 c -11.18965,0.0914 -20.77421,0.44708 -21.29903,0.79045 -0.52483,0.34336 -2.38053,3.63074 -4.12379,7.30528 -3.52336,7.42675 -10.05359,13.97756 -15.83604,15.88594 -2.09274,0.69067 -7.05464,0.98941 -12.16571,0.73246 -13.16218,-0.66169 -20.75393,-4.84482 -23.80544,-13.11704 -2.53973,-6.88484 -0.80623,-34.05934 2.37567,-37.24123 1.21992,-1.21993 9.98675,-1.44346 57.11968,-1.45642 30.62321,-0.008 56.24068,-0.37224 56.92771,-0.80849 1.5052,-0.95576 10.50651,-32.06761 9.80599,-33.89312 C 666.23747,320.45527 664.12105,320 660.5904,320 c -3.0098,0 -5.74055,-0.43394 -6.06834,-0.9643 -0.32778,-0.53037 0.18528,-5.14287 1.14014,-10.25 2.47009,-13.21145 2.45143,-41.76879 -0.0332,-50.7857 -7.76505,-28.18014 -27.95149,-41.4961 -60.12901,-39.66403 -24.27648,1.38222 -41.90138,9.71321 -59.06194,27.9176 -15.30546,16.23644 -22.50003,31.89208 -31.5925,68.74643 l -1.35693,5.5 -7.25004,0.29393 c -8.93879,0.36238 -9.26879,0.7724 -12.14923,15.09531 -3.51543,17.4804 -2.9746,19.12402 6.55277,19.9141 3.4959,0.28991 5.71982,0.97629 6.06329,1.87136 0.29833,0.77744 -0.23584,7.28967 -1.18704,14.47164 -5.21882,39.40407 10.91248,69.27133 42.89113,79.41333 13.61158,4.3169 29.27229,4.98097 43.40955,1.84071 z m -30.2029,-134.21245 c -0.27604,-0.44664 1.00083,-5.28414 2.83748,-10.75 10.04873,-29.90492 20.86783,-43.16541 36.74025,-45.0309 11.22684,-1.31949 17.78112,5.00173 18.53086,17.87192 0.38572,6.62127 -3.5755,35.05252 -5.26448,37.78535 -0.71275,1.15326 -52.13342,1.27355 -52.84411,0.12363 z M 596.94742,306.25 c 0.57278,-2.0625 1.04394,-4.7625 1.047,-6 0.0119,-4.82052 -8.70573,-1.70061 -13.97853,5.00267 C 580.75926,309.3928 581.39074,310 588.953,310 l 6.95299,0 z m 314.68741,131.16094 c 5.59281,-0.67488 7.26712,-2.87467 10.01879,-13.16318 3.92537,-14.67698 3.55624,-15.50305 -7.41593,-16.59592 -10.23305,-1.01925 -16.68575,-5.27073 -18.20177,-11.99258 -1.095,-4.85507 0.63852,-14.29048 8.90678,-48.47899 C 922.49869,274.58784 925.24044,267 933.91458,267 c 2.7234,0 4.39425,0.69954 6.16111,2.57951 2.50644,2.66689 2.92317,6.58039 1.94978,18.31004 -0.56551,6.81453 0.30975,7.11045 21.0308,7.11045 16.19132,0 17.88846,-0.16868 20.23027,-2.01075 3.81425,-3.00029 5.47619,-8.75113 7.77744,-26.91245 2.18544,-17.24736 1.78582,-25.6232 -1.52614,-31.98702 -3.44501,-6.61948 -10.83443,-10.35045 -20.53942,-10.37048 -7.69799,-0.0159 -12.10923,1.92393 -20.10465,8.84089 -9.93731,8.59694 -14.84262,9.05722 -16.85559,1.58161 -1.68559,-6.25982 -3.39188,-7.11651 -16.16328,-8.11522 -6.2562,-0.48922 -17.7372,-1.20044 -25.51334,-1.58048 -20.55525,-1.00457 -21.14306,-0.48887 -25.33154,22.22408 -2.41985,13.12222 -2.09654,14.4164 4.70412,18.82982 6.35695,4.12547 8.61082,7.47781 8.54645,12.71171 -0.0526,4.27437 -23.25735,105.58697 -25.48962,111.28829 -2.0684,5.28277 -6.05392,10.5835 -9.21715,12.25878 -1.6906,0.89536 -5.77382,1.96993 -9.07382,2.38792 -24.64782,3.12202 -25.36278,3.39127 -27.61267,10.3989 -4.15394,12.93809 -5.32338,19.20195 -4.09024,21.90842 l 1.19603,2.62499 51.75344,-0.58456 c 28.46439,-0.32151 53.61412,-0.80908 55.88827,-1.08351 z M 576.10212,395.71017 c 6.12369,-4.12676 4.69972,-5.176 -7.4576,-5.49507 C 557.33526,389.91829 555,390.57853 555,394.07275 c 0,2.81598 2.8504,3.86365 10.60212,3.89684 5.77813,0.0247 7.73555,-0.39646 10.5,-2.25942 z M 1103.8189,207.50518 c 10.2857,-5.60418 15.2952,-13.79571 15.9719,-26.11688 0.3979,-7.24436 0.1511,-8.76776 -2.3081,-14.24747 -5.3015,-11.81341 -15.5328,-18.4892 -28.4827,-18.58466 -8.9457,-0.066 -16.4035,2.91401 -22.4667,8.97716 -6.0631,6.06316 -9.0431,13.52093 -8.9771,22.46667 0.094,12.69826 6.4133,22.63583 17.9438,28.21604 5.4589,2.64185 6.7666,2.87141 14.5,2.54542 7.0759,-0.29827 9.3911,-0.84383 13.8189,-3.25628 z"
       id="path2997"
       style="fill:#0d0d07" />
  </g>
</svg>
